<?xml version="1.0" standalone="no"?>
<!DOCTYPE svg PUBLIC "-//W3C//DTD SVG 20010904//EN"
 "http://www.w3.org/TR/2001/REC-SVG-20010904/DTD/svg10.dtd">
<svg version="1.0" xmlns="http://www.w3.org/2000/svg"
 width="1104.000000pt" height="1104.000000pt" viewBox="0 0 1104.000000 1104.000000"
 preserveAspectRatio="xMidYMid meet">
<metadata>
Created by potrace 1.14, written by Peter Selinger 2001-2017
</metadata>
<g transform="translate(0.000000,1104.000000) scale(0.100000,-0.100000)"
fill="#000000" stroke="none">
<path d="M0 5520 l0 -4370 5520 0 5520 0 0 4370 0 4370 -5520 0 -5520 0 0
-4370z m11030 0 l0 -4340 -326 0 c-293 0 -326 2 -320 16 3 9 6 553 6 1210 l0
1194 70 0 70 0 0 35 0 35 155 0 155 0 -2 227 -3 228 -1735 0 -1735 0 -3 -37
c-3 -35 -6 -38 -33 -38 l-29 0 0 -110 0 -110 -34 0 -33 0 -9 73 c-9 72 -9 72
-41 75 -30 3 -33 6 -33 38 0 33 -1 34 -39 34 -39 0 -40 1 -43 38 l-3 37 -67 3
-68 3 0 34 0 35 -345 0 -345 0 0 -35 0 -34 -72 -3 -73 -3 -3 -37 c-3 -37 -4
-38 -43 -38 -38 0 -39 -1 -39 -34 0 -32 -3 -35 -32 -38 -30 -3 -33 -6 -36 -40
l-3 -38 -70 0 -69 0 0 115 0 115 -2000 0 -2000 0 0 -340 0 -340 -34 0 -35 0 2
113 2 112 -37 3 -38 3 0 110 0 109 -34 0 c-33 0 -35 2 -38 38 -3 35 -5 37 -40
40 -36 3 -38 5 -38 38 l0 34 -74 0 -75 0 -3 38 -3 37 -526 3 -526 2 -6 -67
c-4 -38 -7 -696 -7 -1464 0 -1072 3 -1398 12 -1407 9 -9 -21 -12 -135 -12
l-147 0 0 4340 0 4340 5505 0 5505 0 0 -4340z m-1632 -1737 l3 -113 149 0 150
0 0 -35 0 -35 75 0 75 0 0 -1210 0 -1210 -260 0 c-167 0 -260 4 -260 10 0 6
16 10 35 10 l35 0 0 1165 0 1165 -30 0 -30 0 0 186 0 185 28 -3 27 -3 3 -112z
m-2036 -70 l3 -38 187 -3 186 -2 7 -75 c7 -74 8 -75 36 -75 l29 0 0 -1102 c0
-607 3 -1133 7 -1171 l6 -67 -417 0 c-276 0 -415 3 -411 10 3 5 24 10 46 10
38 0 39 1 39 35 0 33 2 35 35 35 34 0 35 1 35 40 l0 40 40 0 40 0 0 75 0 75
33 0 34 0 6 167 c9 213 9 741 1 822 l-7 61 -262 0 -262 0 -7 -61 c-3 -34 -6
-219 -6 -410 l0 -349 -35 0 c-34 0 -35 -1 -35 -40 l0 -40 -40 0 c-39 0 -40 -1
-40 -35 l0 -35 -64 0 -64 0 -7 70 -7 70 -34 0 -34 0 0 940 0 940 35 0 c33 0
35 2 35 35 0 34 1 35 40 35 39 0 40 1 40 35 0 32 2 35 29 35 26 0 30 -4 33
-32 3 -30 6 -33 40 -36 35 -3 37 -5 40 -40 3 -34 6 -37 36 -40 l32 -3 0 -335
0 -334 45 0 c45 0 45 0 45 -35 l0 -35 180 0 180 0 0 35 0 35 51 0 51 0 -4 415
-3 415 27 0 c24 0 27 -4 30 -37z m-6462 -78 l0 -35 74 0 75 0 3 -37 c3 -36 5
-38 41 -41 35 -3 37 -5 37 -37 0 -31 3 -34 33 -37 l32 -3 3 -822 2 -823 -35 0
c-33 0 -35 -2 -35 -35 0 -34 -1 -35 -40 -35 l-40 0 0 -40 0 -40 -104 0 -103 0
-7 53 c-8 68 -8 1846 0 1915 6 49 8 52 35 52 26 0 29 -3 29 -35z m2630 -1194
c0 -676 3 -1236 6 -1245 6 -14 -21 -16 -261 -16 -175 0 -264 3 -260 10 3 5 19
10 36 10 l29 0 0 150 0 150 -30 0 -29 0 -3 73 -3 72 -297 3 -298 2 0 35 c0 34
-1 35 -40 35 l-40 0 0 340 0 340 40 0 c39 0 40 1 40 35 l0 35 218 2 217 3 3
222 2 222 -37 3 c-36 3 -38 5 -41 41 l-3 37 -220 0 -219 0 0 300 0 300 30 0
c28 0 30 3 30 35 l0 35 565 0 565 0 0 -1229z m984 1177 c3 -29 6 -569 6 -1200
l0 -1148 29 0 c27 0 29 -3 33 -45 l3 -45 -260 0 -260 0 3 1210 2 1210 40 0
c39 0 40 1 40 35 l0 35 179 0 178 0 7 -52z m1206 17 c0 -33 2 -35 35 -35 34 0
35 -1 36 -37 0 -21 0 -382 -1 -803 -1 -421 2 -825 6 -897 l7 -133 28 0 28 0 3
-152 3 -153 37 -3 36 -3 7 -69 c7 -68 7 -69 38 -72 29 -3 32 -7 35 -40 l3 -38
70 0 c39 0 69 -4 69 -10 0 -6 -68 -10 -182 -10 l-183 0 3 235 3 235 -339 0
-339 0 -6 113 c-9 144 -9 450 0 595 l6 112 229 0 228 0 0 40 c0 38 2 40 30 40
l30 0 0 185 0 185 -24 0 c-44 0 -56 10 -56 46 l0 34 -225 0 -225 0 0 239 c0
131 3 266 6 300 l7 61 33 0 c32 0 34 2 34 35 l0 35 265 0 265 0 0 -35z m3000
0 l0 -35 75 0 75 0 0 -40 c0 -37 -2 -40 -29 -40 -27 0 -29 -3 -35 -52 -3 -29
-6 -551 -6 -1160 l0 -1108 35 0 c19 0 35 -4 35 -10 0 -6 -94 -10 -261 -10
-234 0 -261 2 -255 16 3 9 6 553 6 1210 l0 1194 40 0 c39 0 40 1 40 35 l0 35
140 0 140 0 0 -35z m-6920 -1384 c0 -572 3 -1046 6 -1055 6 -14 -24 -16 -297
-15 -313 2 -333 3 -166 14 l97 7 0 34 0 34 69 0 69 0 7 75 7 75 34 0 34 0 0
115 0 115 34 0 34 0 7 143 c4 78 5 447 3 820 l-3 677 33 0 32 0 0 -1039z"/>
<path d="M5040 9635 l0 -35 -174 0 c-95 0 -194 -3 -220 -6 -43 -6 -46 -9 -46
-35 0 -29 -1 -29 -59 -29 -32 0 -86 -3 -120 -6 l-61 -7 0 -33 0 -34 -110 0
-110 0 0 -35 0 -35 -49 0 c-26 0 -76 -3 -110 -6 l-61 -7 0 -33 0 -34 -75 0
-75 0 0 -34 0 -34 -75 -7 -75 -7 0 -34 c0 -34 0 -34 -45 -34 -44 0 -45 0 -45
-34 l0 -34 -75 -7 -75 -7 0 -34 c0 -32 -2 -34 -35 -34 -33 0 -35 -2 -35 -34
l0 -34 -75 -7 -75 -7 0 -34 c0 -31 -2 -33 -37 -36 -35 -3 -38 -6 -41 -35 -3
-28 -7 -32 -35 -35 -29 -3 -32 -6 -35 -40 -3 -35 -5 -38 -35 -38 -18 0 -49 -3
-69 -6 -33 -6 -38 -10 -38 -34 0 -29 -15 -40 -56 -40 -21 0 -24 -5 -24 -35 0
-34 -1 -35 -39 -35 -39 0 -40 -1 -43 -37 -3 -36 -5 -38 -40 -41 -36 -3 -38 -5
-38 -38 0 -32 -2 -34 -34 -34 -33 0 -35 -2 -38 -37 -3 -36 -5 -38 -40 -41 -36
-3 -38 -5 -38 -38 0 -32 -2 -34 -34 -34 l-34 0 -7 -82 c-4 -46 -5 -96 -3 -113
3 -29 5 -30 58 -33 30 -2 79 -1 108 3 49 6 52 8 52 35 0 30 15 40 61 40 27 0
29 3 29 35 0 34 1 35 40 35 l40 0 0 40 c0 39 1 40 35 40 33 0 35 2 35 34 l0
33 70 7 c69 7 70 8 70 36 0 30 14 40 61 40 26 0 29 3 29 34 l0 33 69 7 c70 7
70 7 73 39 3 30 6 32 46 35 41 3 42 4 42 38 l0 34 75 0 75 0 0 34 0 34 75 7
75 7 0 34 0 34 75 0 75 0 0 35 0 35 53 0 c28 0 76 3 105 6 51 7 52 7 52 40 l0
34 80 0 80 0 0 34 0 33 150 8 150 7 0 34 0 34 99 0 c54 0 119 3 145 6 42 6 46
9 46 34 l0 28 235 7 235 7 0 34 0 34 375 0 375 0 0 -35 0 -35 88 0 c48 0 164
-3 259 -7 l172 -6 3 -31 3 -31 148 -3 147 -3 0 -33 0 -33 61 -7 c34 -3 86 -6
115 -6 52 0 53 0 56 -32 l3 -33 108 -3 107 -3 0 -33 0 -34 80 -7 c79 -7 80 -7
80 -35 0 -25 4 -28 46 -34 26 -3 73 -6 105 -6 l59 0 0 -34 0 -34 75 -7 75 -7
0 -34 0 -34 75 0 75 0 0 -34 c0 -37 12 -46 61 -46 27 0 29 -3 29 -35 l0 -35
70 0 70 0 0 -34 c0 -33 2 -35 38 -38 34 -3 37 -6 42 -38 l5 -35 68 -3 67 -3 0
-33 c0 -36 13 -46 56 -46 21 0 24 -5 24 -35 0 -34 1 -35 40 -35 39 0 40 -1 40
-34 0 -33 2 -35 38 -38 35 -3 37 -5 40 -40 l3 -38 115 0 114 0 0 54 c0 29 -3
81 -6 115 l-7 61 -33 0 c-32 0 -34 2 -34 34 0 33 -2 35 -37 38 -36 3 -38 5
-41 41 -3 35 -5 37 -38 37 -32 0 -34 2 -34 34 0 33 -2 35 -37 38 -36 3 -38 5
-41 41 -3 36 -4 37 -43 37 -38 0 -39 1 -39 34 0 33 -2 35 -37 38 -35 3 -38 6
-41 35 -3 32 -4 32 -72 39 l-69 6 -3 37 c-3 32 -6 36 -35 39 -28 3 -32 7 -35
35 -3 29 -6 32 -40 35 -36 3 -38 5 -38 36 l0 34 -75 7 -75 7 0 34 c0 33 -1 34
-40 34 -39 0 -40 1 -40 34 l0 35 -70 7 -70 7 0 33 c0 34 -1 34 -45 34 -45 0
-45 0 -45 34 l0 34 -75 7 c-73 7 -75 8 -75 35 0 25 -4 28 -46 34 -26 3 -60 6
-75 6 -26 0 -29 3 -29 34 l0 33 -61 7 c-34 3 -84 6 -110 6 l-49 0 0 35 0 35
-110 0 -110 0 0 34 0 33 -61 7 c-34 3 -88 6 -120 6 -58 0 -59 0 -59 29 0 26
-3 29 -46 35 -26 3 -125 6 -220 6 l-174 0 0 35 0 35 -565 0 -565 0 0 -35z"/>
<path d="M5273 9073 l-83 -4 0 -34 0 -35 -99 0 c-54 0 -119 -3 -145 -6 -42 -6
-46 -9 -46 -34 0 -27 -2 -28 -75 -35 l-75 -7 0 -34 c0 -34 0 -34 -45 -34 -45
0 -45 0 -45 -34 l0 -34 -70 -7 -70 -7 0 -34 c0 -33 -1 -34 -39 -34 -39 0 -40
-1 -43 -37 -3 -36 -5 -38 -40 -41 -36 -3 -38 -5 -38 -37 0 -31 -3 -34 -32 -37
-33 -3 -33 -3 -42 -75 l-9 -73 -33 0 c-33 0 -34 -1 -34 -40 0 -39 -1 -40 -34
-40 l-34 0 -7 -75 c-7 -74 -8 -75 -35 -75 l-28 0 -12 -115 c-12 -108 -15 -115
-35 -115 -21 0 -23 -7 -34 -88 -12 -94 -15 -638 -5 -741 7 -58 8 -61 34 -61
26 0 27 -3 34 -61 3 -34 6 -86 6 -115 l0 -54 35 0 34 0 3 -72 3 -73 36 -3 37
-3 7 -75 c7 -74 7 -74 36 -74 26 0 29 -3 29 -34 0 -33 2 -35 38 -38 35 -3 37
-5 40 -40 3 -36 5 -38 38 -38 32 0 34 -2 34 -34 0 -36 12 -46 56 -46 21 0 24
-5 24 -35 0 -34 1 -35 40 -35 39 0 40 -1 40 -34 l0 -34 70 -7 70 -7 0 -34 c0
-34 0 -34 45 -34 44 0 45 0 45 -34 l0 -33 61 -7 c34 -3 84 -6 110 -6 l49 0 0
-35 0 -35 528 2 527 3 3 33 c3 31 4 32 51 32 27 0 76 3 110 6 61 7 61 7 61 39
l0 32 70 7 c69 7 70 8 70 36 0 30 14 40 61 40 26 0 29 3 29 34 0 33 2 35 38
38 34 3 37 6 40 35 3 28 7 32 35 35 29 3 32 6 35 41 3 36 4 37 43 37 38 0 39
1 39 34 0 32 3 35 33 38 29 3 32 6 35 41 3 35 5 37 37 37 32 0 34 2 37 38 3
34 6 37 35 40 l31 3 7 75 7 74 33 0 c31 0 32 1 39 53 3 28 6 78 6 109 0 57 0
57 33 60 l32 3 7 235 c7 229 3 592 -8 738 -6 71 -6 72 -34 72 l-29 0 -3 78 -3
77 -32 3 c-32 3 -32 3 -39 73 l-7 69 -32 0 -33 0 -7 75 -7 75 -34 0 c-33 0
-34 1 -34 40 0 39 -1 40 -35 40 -33 0 -35 2 -35 35 0 34 -1 35 -40 35 l-40 0
0 40 0 40 -40 0 c-39 0 -40 1 -40 34 0 33 -2 35 -37 38 -34 3 -38 6 -41 34 -3
29 -6 32 -49 38 -25 3 -59 6 -74 6 -26 0 -29 3 -29 34 l0 34 -75 7 -75 7 0 34
0 34 -145 0 -145 0 0 33 0 34 -112 6 c-110 7 -400 6 -565 0z m439 -715 l3 -33
72 -3 72 -3 3 -37 c3 -35 5 -37 41 -40 l37 -3 0 -70 0 -69 34 0 c33 0 34 -1
39 -52 2 -29 2 -97 -1 -150 l-5 -98 -33 0 -34 0 0 -75 0 -75 -40 0 -40 0 0
-247 c0 -137 3 -272 6 -300 6 -50 9 -53 34 -53 27 0 28 -2 34 -72 10 -106 11
-361 2 -376 -4 -6 -20 -12 -37 -12 -26 0 -29 -3 -29 -30 l0 -30 -335 0 -335 0
0 220 0 220 29 0 c27 0 28 2 35 61 3 34 6 92 6 129 0 37 3 95 6 129 7 59 8 61
35 61 29 0 29 1 29 58 0 31 -3 81 -6 110 -6 49 -9 52 -34 52 -27 0 -28 2 -35
75 -7 74 -7 75 -35 75 -27 0 -28 1 -35 75 l-7 75 -34 0 -34 0 0 80 0 80 30 0
c27 0 30 3 30 29 0 17 5 33 10 36 6 3 10 22 10 41 0 31 3 34 29 34 29 0 29 0
36 75 l7 75 74 0 74 0 0 35 0 35 144 0 145 0 3 -32z"/>
<path d="M8688 6973 c-36 -4 -38 -6 -38 -39 0 -33 -1 -34 -40 -34 -39 0 -40
-1 -40 -35 0 -30 -3 -35 -24 -35 -44 0 -56 -10 -56 -46 l0 -34 -69 0 -70 0 -3
-37 c-3 -36 -5 -38 -40 -41 -36 -3 -38 -5 -38 -36 l0 -33 -69 -7 c-70 -7 -70
-7 -73 -39 -3 -29 -6 -32 -40 -35 -36 -3 -38 -5 -38 -38 l0 -34 -75 0 -75 0 0
-34 0 -34 -75 -7 -75 -7 0 -33 0 -33 -75 -7 c-74 -7 -75 -7 -75 -35 0 -28 -1
-28 -75 -35 l-75 -7 0 -34 0 -34 -75 0 -75 0 0 -34 0 -34 -80 -7 -80 -7 0 -34
0 -33 -112 -3 -113 -3 -3 -32 -3 -33 -82 0 c-45 0 -112 -3 -149 -7 l-68 -6 0
-33 0 -34 -185 0 -185 0 0 -35 0 -35 -634 0 -635 0 -3 33 -3 32 -187 3 -188 2
0 34 0 33 -61 7 c-34 3 -102 6 -150 6 l-89 0 0 35 0 35 -110 0 -110 0 0 34 0
34 -79 7 -80 7 -3 31 -3 32 -77 3 -78 3 0 33 c0 33 -1 33 -52 40 -29 3 -74 6
-100 6 -45 0 -47 1 -50 33 l-3 32 -77 3 -77 3 -3 37 c-3 35 -5 37 -40 40 -34
3 -38 6 -38 32 0 28 -1 28 -75 35 l-75 7 0 33 0 33 -70 7 -70 7 0 34 c0 33 -1
34 -40 34 -39 0 -40 1 -40 34 0 33 -2 35 -37 38 -35 3 -38 6 -43 38 l-5 35
-67 3 -68 3 0 33 c0 36 -13 46 -56 46 -21 0 -24 5 -24 35 0 34 -1 35 -40 35
-39 0 -40 1 -40 35 l0 35 -80 0 -80 0 0 -57 c0 -32 3 -81 6 -110 6 -49 8 -52
38 -55 28 -3 31 -7 34 -40 3 -37 4 -38 43 -38 38 0 39 -1 39 -34 0 -32 3 -35
32 -38 30 -3 33 -6 36 -40 3 -37 4 -38 43 -38 38 0 39 -1 39 -34 0 -32 3 -35
32 -38 30 -3 33 -6 36 -40 3 -37 4 -38 43 -38 38 0 39 -1 39 -35 0 -33 2 -35
34 -35 33 0 35 -2 38 -37 3 -37 4 -38 45 -41 41 -3 43 -4 43 -37 l0 -33 70 -7
70 -7 0 -34 c0 -33 1 -34 40 -34 39 0 40 -1 40 -35 0 -30 3 -35 24 -35 41 0
56 -11 56 -40 0 -28 1 -29 70 -36 l70 -7 0 -32 0 -33 75 -7 75 -7 0 -34 c0
-34 0 -34 45 -34 44 0 45 0 45 -34 0 -33 1 -33 53 -40 28 -3 73 -6 99 -6 45 0
47 -1 50 -32 l3 -33 78 -3 77 -3 0 -33 0 -34 80 -7 c79 -7 80 -7 80 -35 0 -25
4 -28 46 -34 26 -3 91 -6 145 -6 l99 0 0 -34 0 -33 61 -7 c34 -3 104 -6 155
-6 l94 0 0 -35 0 -35 785 0 785 0 0 35 0 35 94 0 c51 0 121 3 155 6 l61 7 0
33 0 33 113 3 112 3 3 33 c3 31 4 32 51 32 27 0 76 3 110 6 l61 7 0 33 0 33
78 3 77 3 3 33 3 32 59 0 c79 0 90 5 90 46 l0 34 70 0 70 0 0 34 0 34 75 7 75
7 0 34 c0 33 1 34 40 34 39 0 40 1 40 34 l0 34 70 7 70 7 0 34 c0 33 1 34 40
34 39 0 40 1 40 34 0 33 2 35 38 38 35 3 37 5 40 41 l3 37 69 0 69 0 3 38 c3
35 5 37 41 40 35 3 37 5 37 38 0 33 1 34 39 34 39 0 40 1 43 38 3 34 6 37 36
40 29 3 32 6 32 38 0 33 1 34 39 34 39 0 40 1 43 38 3 34 6 37 36 40 29 3 32
6 32 38 0 33 1 34 40 34 l40 0 0 40 c0 39 1 40 35 40 33 0 35 2 35 35 0 33 2
35 34 35 l33 0 7 70 c4 38 4 74 1 80 -6 10 -108 11 -187 3z"/>
</g>
</svg>
