<?xml version="1.0" standalone="no"?>
<!DOCTYPE svg PUBLIC "-//W3C//DTD SVG 20010904//EN"
 "http://www.w3.org/TR/2001/REC-SVG-20010904/DTD/svg10.dtd">
<svg version="1.0" xmlns="http://www.w3.org/2000/svg"
 width="720.000000pt" height="720.000000pt" viewBox="0 0 720.000000 720.000000"
 preserveAspectRatio="xMidYMid meet">
<metadata>
Created by potrace 1.14, written by Peter Selinger 2001-2017
</metadata>
<g transform="translate(0.000000,720.000000) scale(0.100000,-0.100000)"
fill="#000000" stroke="none">
<path d="M3369 6773 c-96 -3 -107 -6 -112 -23 -4 -17 -14 -20 -60 -20 -72 0
-117 -10 -117 -25 0 -13 -51 -25 -107 -25 -26 0 -33 -4 -33 -20 0 -16 -7 -20
-34 -20 -53 0 -96 -11 -96 -26 0 -8 -18 -15 -45 -20 -35 -5 -45 -10 -45 -25 0
-16 -7 -19 -41 -19 -32 0 -42 -4 -46 -19 -3 -14 -17 -21 -49 -26 -35 -5 -44
-10 -44 -26 0 -14 -7 -19 -25 -19 -14 0 -25 -6 -25 -13 0 -8 -18 -20 -39 -27
-23 -7 -41 -21 -44 -31 -3 -11 -14 -19 -25 -19 -11 0 -22 -8 -25 -19 -3 -11
-17 -21 -40 -25 -23 -4 -37 -13 -40 -26 -3 -12 -14 -20 -25 -20 -11 0 -22 -9
-25 -20 -3 -12 -14 -20 -26 -20 -14 0 -21 -6 -21 -20 0 -14 -7 -20 -21 -20
-11 0 -23 -8 -25 -18 -5 -17 -47 -42 -71 -42 -7 0 -13 -9 -13 -20 0 -13 -7
-20 -18 -20 -20 0 -42 -49 -42 -93 0 -22 5 -27 24 -27 15 0 26 7 29 20 3 11
14 20 25 20 11 0 22 8 25 19 3 12 17 21 41 25 21 4 36 13 36 21 0 8 11 17 24
21 13 3 26 14 29 23 3 12 18 20 46 25 27 4 41 11 41 21 0 9 10 15 26 15 17 0
28 6 31 20 4 14 17 22 45 26 22 4 42 13 45 20 3 8 23 17 45 21 27 4 42 12 45
23 5 18 42 30 90 30 16 0 27 7 30 19 3 14 17 21 49 26 26 4 44 12 44 19 0 14
50 26 108 26 21 0 32 5 32 14 0 14 10 17 123 31 29 4 47 11 47 19 0 16 64 26
160 26 59 0 68 2 73 20 5 20 14 20 427 20 413 0 422 0 427 -20 5 -17 14 -20
68 -20 89 0 155 -11 155 -25 0 -13 43 -25 94 -25 46 0 76 -11 76 -26 0 -9 12
-14 34 -14 53 0 96 -11 96 -25 0 -16 23 -25 65 -25 24 0 34 -5 38 -20 4 -16
14 -20 47 -20 33 0 43 -4 47 -20 4 -14 17 -21 49 -26 27 -4 44 -11 44 -20 0
-8 16 -16 41 -20 28 -5 43 -13 46 -25 3 -11 19 -20 43 -24 26 -4 40 -13 43
-26 4 -14 14 -19 42 -19 28 0 38 -5 42 -20 3 -11 14 -20 25 -20 11 0 22 -8 25
-19 3 -10 21 -24 43 -31 22 -7 40 -21 43 -31 3 -11 14 -19 26 -19 14 0 21 -6
21 -20 0 -11 6 -20 14 -20 7 0 28 -3 45 -6 28 -6 31 -4 31 17 0 42 -11 67 -31
72 -11 3 -19 14 -19 26 0 15 -6 21 -21 21 -12 0 -23 8 -26 18 -2 10 -19 24
-36 32 -18 7 -38 22 -45 32 -7 10 -19 18 -26 18 -8 0 -16 9 -19 20 -3 12 -14
20 -26 20 -14 0 -21 6 -21 20 0 14 -7 20 -21 20 -12 0 -23 8 -26 19 -3 13 -17
22 -44 26 -29 5 -39 11 -39 26 0 14 -7 19 -25 19 -18 0 -25 5 -25 19 0 15 -10
21 -39 26 -27 4 -41 13 -44 26 -3 11 -14 19 -27 19 -13 0 -24 8 -27 20 -4 14
-17 21 -49 26 -27 4 -44 11 -44 20 0 8 -16 16 -41 20 -28 5 -43 13 -46 25 -4
13 -19 20 -49 25 -25 3 -44 12 -44 19 0 13 -43 25 -92 25 -21 0 -31 6 -35 20
-4 14 -14 20 -32 20 -51 0 -101 13 -101 25 0 15 -45 25 -119 25 -68 0 -101 8
-101 25 0 21 -378 30 -791 18z"/>
<path d="M3695 6453 c-11 -3 -24 -11 -28 -19 -6 -10 -28 -14 -76 -14 -124 0
-189 -10 -194 -31 -4 -15 -15 -19 -47 -19 -33 0 -43 -4 -47 -19 -3 -13 -17
-21 -43 -25 -26 -4 -39 -12 -43 -26 -3 -12 -14 -20 -27 -20 -13 0 -24 -8 -27
-19 -3 -12 -17 -21 -40 -26 -23 -4 -37 -13 -40 -26 -3 -10 -14 -19 -24 -19
-13 0 -19 -7 -19 -21 0 -11 -8 -23 -18 -25 -17 -5 -42 -47 -42 -71 0 -7 -9
-13 -20 -13 -15 0 -20 -7 -20 -25 0 -18 -5 -25 -19 -25 -14 0 -20 -10 -25 -40
-4 -25 -12 -40 -21 -40 -9 0 -16 -16 -21 -46 -5 -33 -12 -48 -25 -51 -16 -5
-19 -15 -19 -68 0 -89 -11 -155 -25 -155 -18 0 -26 -68 -19 -150 5 -45 11 -70
19 -70 14 0 25 -53 25 -128 0 -37 4 -54 15 -58 8 -3 19 -31 26 -64 8 -43 16
-60 30 -63 11 -3 19 -14 19 -26 0 -14 6 -21 19 -21 14 0 20 -10 25 -39 4 -27
12 -40 26 -44 12 -3 20 -14 20 -26 0 -14 6 -21 19 -21 13 0 21 -8 23 -22 2
-15 11 -24 26 -26 14 -2 22 -10 22 -23 0 -12 7 -19 20 -19 13 0 20 -7 20 -20
0 -11 7 -20 15 -20 19 0 58 -21 68 -37 4 -7 17 -13 28 -13 12 0 23 -8 26 -20
4 -14 17 -21 49 -26 25 -3 44 -12 44 -19 0 -15 31 -25 82 -25 21 0 44 -7 54
-17 15 -16 43 -18 226 -21 176 -3 208 -1 208 11 0 20 22 27 82 27 41 0 51 4
55 19 3 13 17 21 48 25 29 5 44 13 48 25 3 12 18 20 46 25 26 4 41 12 41 20 0
8 10 16 23 18 14 2 23 11 25 26 2 14 10 22 23 22 12 0 19 7 19 19 0 13 8 21
23 23 14 2 23 11 25 26 2 14 10 22 23 22 12 0 19 7 19 20 0 13 7 20 20 20 14
0 20 7 20 21 0 12 8 23 20 26 14 4 22 17 27 46 4 26 12 41 24 44 12 4 20 19
25 48 4 28 12 45 23 48 10 2 17 15 18 33 6 86 15 133 26 131 9 -1 13 47 15
181 2 150 0 182 -11 182 -15 0 -27 48 -27 108 0 22 -5 32 -15 32 -10 0 -17 14
-21 41 -5 28 -13 43 -25 46 -11 3 -20 19 -24 45 -5 27 -13 42 -25 45 -12 3
-21 18 -25 44 -5 29 -11 39 -26 39 -12 0 -19 7 -19 20 0 13 -10 24 -25 30 -14
5 -25 16 -25 25 0 8 -9 15 -20 15 -13 0 -20 7 -20 20 0 11 -6 20 -13 20 -23 0
-67 25 -67 38 0 6 -11 12 -25 12 -18 0 -25 5 -25 19 0 16 -9 21 -45 27 -35 5
-45 10 -45 25 0 16 -8 19 -46 19 -37 0 -47 4 -51 19 -4 17 -18 20 -91 26 -132
9 -133 9 -132 20 2 18 -54 28 -95 18z m55 -367 c0 -8 15 -16 38 -20 81 -14 90
-18 95 -37 3 -11 14 -19 26 -19 14 0 21 -6 21 -20 0 -13 7 -20 19 -20 15 0 20
-10 25 -45 5 -27 12 -45 20 -45 15 0 26 -43 26 -97 0 -26 -5 -36 -19 -40 -14
-4 -20 -18 -25 -63 -5 -46 -11 -59 -26 -63 -12 -3 -20 -14 -20 -26 0 -14 -6
-21 -20 -21 -19 0 -20 -7 -20 -90 0 -70 3 -90 14 -90 16 0 26 -43 26 -119 0
-70 8 -101 26 -101 12 0 14 -21 12 -112 l-3 -113 -230 -3 c-126 -2 -245 0
-262 3 l-33 6 0 84 c0 66 3 85 14 85 16 0 26 43 26 115 0 72 10 115 26 115 11
0 14 23 14 110 0 101 -2 110 -19 110 -14 0 -20 10 -25 40 -4 24 -12 40 -20 40
-16 0 -26 51 -26 140 0 89 10 140 26 140 8 0 16 16 20 40 5 31 11 40 26 40 11
0 22 8 25 19 5 19 40 31 95 31 21 0 31 6 35 20 4 16 14 20 49 20 31 0 44 -4
44 -14z"/>
<path d="M5550 5140 c0 -14 -7 -20 -21 -20 -12 0 -23 -8 -26 -19 -3 -11 -15
-21 -27 -23 -13 -2 -22 -11 -24 -24 -2 -17 -12 -23 -43 -28 -30 -5 -39 -11
-39 -26 0 -14 -7 -20 -24 -20 -15 0 -26 -7 -29 -19 -3 -12 -17 -21 -41 -25
-20 -4 -36 -11 -36 -17 0 -6 -13 -15 -30 -20 -16 -6 -30 -17 -30 -25 0 -8 -16
-16 -40 -20 -29 -5 -40 -11 -40 -24 0 -13 -11 -19 -44 -24 -32 -5 -45 -12 -49
-26 -4 -16 -14 -20 -46 -20 -34 0 -41 -3 -41 -19 0 -15 -10 -20 -45 -25 -28
-5 -45 -12 -45 -21 0 -9 -17 -16 -46 -21 -33 -5 -48 -12 -51 -25 -4 -14 -15
-19 -38 -19 -52 0 -95 -11 -95 -26 0 -8 -20 -15 -57 -19 -91 -10 -111 -15
-117 -31 -4 -10 -22 -14 -59 -14 -72 0 -117 -10 -117 -25 0 -19 -119 -25 -525
-25 -415 0 -525 6 -525 26 0 8 -3 14 -7 15 -5 0 -48 4 -97 8 -66 6 -91 12 -98
24 -5 10 -22 17 -41 17 -56 0 -107 12 -107 25 0 14 -44 25 -96 25 -27 0 -34 4
-34 20 0 14 -7 20 -22 20 -38 0 -68 12 -68 26 0 8 -18 15 -46 20 -25 3 -48 13
-51 20 -3 8 -23 17 -45 21 -27 4 -42 12 -45 24 -3 11 -19 20 -45 24 -28 5 -42
13 -45 26 -4 14 -14 19 -40 19 -26 0 -36 5 -40 20 -3 11 -12 20 -19 20 -18 0
-57 22 -67 38 -4 6 -17 12 -28 12 -12 0 -23 8 -26 20 -3 11 -14 20 -25 20 -11
0 -22 8 -25 20 -3 13 -17 22 -40 26 -23 4 -37 14 -40 25 -3 11 -14 19 -24 19
-12 0 -23 10 -29 25 -8 22 -14 24 -37 19 -37 -9 -39 -12 -21 -27 9 -6 18 -21
20 -32 2 -12 12 -21 26 -23 14 -2 22 -10 22 -23 0 -12 7 -19 19 -19 13 0 21
-8 23 -22 2 -15 11 -24 26 -26 14 -2 22 -10 22 -23 0 -12 7 -19 20 -19 13 0
20 -7 20 -19 0 -13 8 -21 23 -23 14 -2 23 -11 25 -24 2 -16 12 -24 37 -28 21
-4 36 -14 40 -26 4 -13 15 -20 31 -20 17 0 24 -5 24 -20 0 -14 7 -20 21 -20
12 0 23 -8 26 -18 2 -10 19 -24 38 -31 18 -6 36 -18 39 -26 3 -8 15 -15 27
-15 12 0 23 -8 26 -19 3 -14 17 -22 45 -26 28 -5 42 -13 45 -26 3 -11 14 -19
25 -19 11 0 22 -8 25 -20 4 -14 17 -21 49 -26 27 -4 44 -12 44 -20 0 -8 23
-18 62 -25 44 -9 56 -14 42 -19 -14 -5 -5 -10 34 -19 29 -6 59 -11 66 -11 8 0
16 -9 19 -20 4 -14 14 -20 35 -20 50 0 92 -12 92 -26 0 -9 12 -14 33 -14 56 0
107 -12 107 -25 0 -16 46 -25 130 -25 86 0 130 -9 130 -26 0 -12 49 -14 298
-12 192 2 296 7 294 13 -5 15 34 23 119 24 95 1 139 10 139 27 0 9 22 15 69
20 56 5 70 10 74 25 4 14 14 19 40 19 54 0 97 11 97 26 0 8 18 15 46 20 25 3
48 13 51 20 3 7 31 19 64 25 35 7 59 17 59 24 0 8 17 16 39 20 27 4 41 13 44
26 3 11 14 19 27 19 13 0 24 8 27 19 3 13 17 22 43 26 26 4 40 13 43 26 3 11
14 19 26 19 14 0 21 6 21 19 0 15 10 20 45 25 36 6 45 11 45 27 0 12 7 19 19
19 10 0 21 9 24 20 3 12 14 20 26 20 14 0 21 6 21 19 0 15 10 21 39 26 27 4
41 12 44 26 3 11 15 23 26 26 12 3 21 14 21 24 0 12 7 19 19 19 13 0 21 8 23
23 2 14 11 23 24 25 12 2 24 12 27 23 3 11 14 19 26 19 14 0 21 6 21 19 0 10
9 21 20 24 12 3 20 14 20 26 0 14 6 21 20 21 17 0 20 7 20 40 0 29 -4 40 -15
40 -8 0 -15 -9 -15 -20z"/>
<path d="M4200 3536 c0 -8 -15 -16 -37 -20 -81 -14 -93 -18 -93 -32 0 -7 -11
-16 -25 -20 -15 -4 -25 -13 -25 -24 0 -12 -9 -20 -22 -22 -15 -2 -24 -11 -26
-25 -2 -15 -10 -23 -23 -23 -16 0 -19 -7 -19 -41 0 -31 -4 -42 -19 -46 -28 -7
-31 -74 -31 -643 0 -569 3 -636 31 -643 15 -4 19 -15 19 -47 0 -33 4 -43 20
-47 11 -3 20 -14 20 -25 0 -11 8 -22 19 -25 11 -3 21 -13 24 -24 3 -11 14 -19
26 -19 14 0 21 -6 21 -19 0 -15 10 -20 45 -25 27 -5 45 -12 45 -20 0 -23 124
-33 249 -20 40 5 61 11 61 20 0 7 18 15 44 19 32 5 46 12 49 26 3 11 14 19 26
19 15 0 21 6 21 21 0 12 8 23 19 26 10 3 24 21 31 44 7 21 19 39 27 39 8 0 13
12 13 34 0 54 11 96 26 96 12 0 14 41 14 223 l0 224 -40 13 c-22 7 -40 17 -40
22 0 4 -22 8 -50 8 -27 0 -50 -4 -50 -9 0 -6 -27 -15 -60 -22 l-60 -12 -1
-186 c-1 -226 -8 -296 -29 -296 -8 0 -16 -10 -18 -21 -4 -28 -55 -37 -127 -22
-52 10 -54 12 -60 49 -4 22 -12 39 -19 39 -21 0 -26 107 -25 575 1 454 5 542
27 537 7 -1 15 11 18 28 4 20 13 30 24 30 10 0 20 9 23 20 4 15 14 20 40 20
63 0 97 -11 97 -31 0 -12 7 -19 19 -19 15 0 19 -11 24 -67 4 -38 7 -130 7
-205 0 -116 2 -138 15 -138 8 0 15 -7 15 -15 0 -13 22 -15 135 -15 l135 0 0
203 c0 113 -5 209 -10 217 -9 13 -10 13 -11 0 -2 -27 -17 34 -18 73 -1 29 -6
40 -20 44 -13 3 -22 17 -26 44 -5 29 -11 39 -26 39 -12 0 -19 7 -19 20 0 14
-7 20 -21 20 -12 0 -23 8 -26 19 -5 19 -14 23 -95 37 -23 4 -38 12 -38 20 0
11 -23 14 -110 14 -87 0 -110 -3 -110 -14z"/>
<path d="M603 3490 c-3 -11 -12 -20 -19 -20 -12 0 -14 -133 -14 -850 l0 -850
288 0 c158 0 297 3 310 6 12 4 22 13 22 20 0 8 10 14 25 14 18 0 25 5 25 20 0
14 7 20 21 20 12 0 23 8 26 19 3 11 13 21 24 24 12 3 19 14 19 30 0 16 7 26
20 30 19 5 20 17 22 614 3 701 3 719 -21 726 -10 2 -17 16 -19 37 -3 35 -7 44
-23 46 -5 1 -13 2 -19 3 -5 0 -10 10 -10 21 0 14 -7 20 -21 20 -12 0 -23 8
-26 19 -5 19 -40 31 -95 31 -21 0 -31 6 -35 20 -5 19 -14 20 -250 20 -236 0
-245 -1 -250 -20z m407 -270 c0 -15 7 -20 25 -20 19 0 25 -5 25 -21 0 -12 8
-23 19 -26 27 -7 31 -76 31 -529 0 -463 -5 -544 -31 -544 -12 0 -19 -7 -19
-19 0 -16 -10 -21 -56 -27 -59 -7 -150 -1 -162 10 -9 9 -12 854 -5 1054 l6
142 84 0 c76 0 83 -2 83 -20z"/>
<path d="M1488 3503 c-9 -2 -19 -15 -22 -29 -8 -32 -8 -1632 0 -1673 l7 -31
353 0 354 0 0 110 c0 105 -1 110 -21 110 -12 0 -23 8 -26 20 -5 19 -14 20
-157 21 -162 1 -212 8 -209 27 2 7 -4 12 -12 12 -13 0 -15 30 -15 210 0 172 2
210 14 210 7 0 16 9 19 19 4 18 16 20 130 23 69 1 129 7 134 11 4 5 8 63 8
130 l0 122 -134 3 c-123 2 -133 4 -138 22 -3 11 -14 20 -24 20 -18 0 -19 11
-19 199 l0 199 215 4 c118 2 218 7 222 12 4 4 8 62 8 129 l0 122 -335 1 c-184
1 -342 0 -352 -3z"/>
<path d="M2227 3445 c-4 -36 -4 -94 0 -129 l6 -64 81 -6 c44 -4 104 -7 131 -9
l50 -2 3 -732 2 -733 135 0 c128 0 135 1 135 20 0 11 7 20 15 20 13 0 15 83
15 684 0 376 3 698 6 715 l7 31 77 0 c105 0 140 8 140 31 0 12 7 19 19 19 21
0 31 40 31 123 0 40 -4 50 -19 54 -11 3 -21 13 -24 24 -5 18 -20 19 -405 19
l-399 0 -6 -65z"/>
<path d="M3150 3503 c-8 -3 -18 -11 -22 -17 -4 -6 -8 -395 -8 -863 l0 -853
360 0 360 0 0 79 c0 99 -8 141 -27 141 -8 0 -17 9 -20 19 -5 18 -17 20 -193
23 -104 2 -192 7 -197 11 -11 11 -11 463 0 474 5 4 64 9 133 11 114 3 124 5
124 23 0 12 7 19 19 19 16 0 19 11 25 83 4 45 3 96 -2 112 l-8 30 -147 3 -146
3 -6 42 c-3 23 -5 121 -3 217 l3 175 195 6 c107 3 196 7 196 7 1 1 4 11 7 22
3 12 14 20 27 20 21 0 22 3 18 99 -1 55 -7 103 -11 108 -10 9 -654 15 -677 6z"/>
<path d="M4809 3503 c-23 -6 -29 -33 -29 -131 0 -76 2 -84 20 -89 11 -3 20
-11 20 -18 0 -16 54 -25 152 -25 l78 0 2 -729 c2 -401 7 -733 11 -738 5 -4 64
-10 132 -12 l124 -3 6 25 c4 14 13 28 21 31 12 5 14 114 14 714 l0 709 131 6
c72 3 133 8 136 11 3 2 6 49 6 104 2 93 0 101 -23 125 l-25 27 -380 -1 c-209
-1 -387 -3 -396 -6z"/>
<path d="M5679 3483 c-2 -15 -3 -407 -1 -870 l3 -843 135 0 134 0 -2 859 c-2
473 -7 863 -11 868 -5 4 -64 9 -132 11 l-122 4 -4 -29z"/>
<path d="M6034 3495 c-8 -20 0 -233 9 -242 4 -3 54 -8 112 -11 l104 -5 3 -722
c2 -398 7 -727 11 -732 5 -4 73 -9 153 -11 l144 -3 0 704 c0 387 3 719 6 736
l7 31 97 0 c54 0 112 3 130 6 l32 7 -4 118 c-2 64 -7 121 -11 126 -5 4 -184 9
-398 11 -348 2 -390 1 -395 -13z"/>
<path d="M2050 1475 c-5 -14 -16 -25 -23 -25 -22 0 -27 -97 -27 -545 0 -427 3
-485 26 -485 8 0 14 -9 14 -20 0 -18 7 -20 69 -20 l68 0 7 38 c3 20 6 220 6
443 0 352 2 408 15 413 8 3 15 15 15 26 0 19 6 20 90 20 l89 0 3 -459 c2 -253
6 -462 9 -466 12 -12 78 -17 123 -11 l46 7 0 535 c0 516 -1 534 -19 534 -10 0
-21 9 -24 20 -5 19 -14 20 -241 20 l-236 0 -10 -25z"/>
<path d="M2743 1493 l-23 -4 0 -555 0 -554 63 0 c93 0 103 5 113 53 6 27 15
42 24 42 11 0 16 13 17 45 5 87 14 130 27 130 15 0 26 51 26 123 0 39 4 50 19
54 14 4 20 17 24 65 3 33 7 61 9 63 2 3 20 6 39 7 l34 3 3 -293 2 -293 68 3
67 3 3 533 c2 519 2 534 -17 539 -11 3 -21 13 -24 24 -4 14 -14 19 -40 19 -59
0 -95 -11 -100 -31 -3 -10 -12 -19 -20 -19 -15 0 -27 -29 -27 -67 0 -13 -6
-23 -14 -23 -15 0 -26 -30 -26 -76 0 -51 -12 -94 -25 -94 -13 0 -25 -51 -25
-108 0 -20 -6 -35 -15 -38 -8 -4 -15 -12 -15 -20 0 -9 -11 -14 -30 -14 l-30 0
0 239 0 239 -31 6 c-33 6 -39 6 -76 -1z"/>
<path d="M3373 1493 c-21 -4 -23 -10 -23 -69 0 -56 2 -64 19 -64 10 0 21 -9
24 -20 4 -17 14 -20 65 -20 l59 0 7 -37 c3 -21 6 -230 6 -465 l0 -427 44 -6
c25 -4 62 -4 84 0 l39 6 7 91 c3 50 6 259 6 465 l0 373 66 0 c57 0 67 3 71 20
3 11 12 20 19 20 10 0 14 16 14 64 0 63 0 64 -31 70 -35 7 -440 6 -476 -1z"/>
<path d="M4020 1479 c0 -12 -8 -23 -20 -26 -20 -5 -20 -14 -20 -533 l0 -528
23 -6 c12 -3 120 -6 240 -6 l217 0 0 50 c0 36 -4 50 -14 50 -7 0 -16 9 -19 20
-5 19 -14 20 -121 20 -109 0 -116 1 -116 20 0 11 -6 20 -14 20 -17 0 -26 44
-26 135 0 93 9 135 27 135 8 0 17 9 20 20 5 18 14 20 77 20 39 0 88 3 109 7
37 6 39 7 33 37 -4 17 -13 34 -21 39 -8 4 -15 16 -15 26 0 22 -35 31 -122 31
-50 0 -61 3 -65 19 -3 11 -14 21 -24 24 -18 5 -19 14 -17 134 l3 128 134 3
c123 2 133 4 138 22 3 11 12 20 19 20 10 0 14 16 14 64 0 63 0 64 -31 70 -17
3 -116 6 -220 6 -185 0 -189 0 -189 -21z"/>
<path d="M4593 1480 c-3 -11 -12 -20 -19 -20 -12 0 -14 -86 -14 -534 l0 -535
46 -7 c45 -6 111 -1 123 11 3 4 7 91 9 195 l4 188 89 7 c63 5 89 11 89 20 0 8
17 16 40 20 25 4 40 12 40 21 0 8 11 19 24 24 18 6 26 19 31 49 4 25 12 41 21
41 12 0 14 32 14 180 0 148 -2 180 -14 180 -9 0 -17 16 -21 41 -5 30 -13 43
-31 49 -13 5 -24 16 -24 24 0 10 -15 17 -45 22 -26 3 -45 12 -45 19 0 19 -48
25 -187 25 -116 0 -125 -1 -130 -20z m277 -181 c0 -12 8 -23 19 -26 24 -6 31
-41 31 -153 0 -101 -5 -120 -30 -120 -10 0 -20 -9 -23 -20 -4 -16 -13 -20 -44
-20 -21 0 -48 3 -61 6 l-23 7 3 164 c3 185 2 183 81 183 41 0 47 -3 47 -21z"/>
</g>
</svg>
